<svg xmlns="http://www.w3.org/2000/svg" xmlns:xlink="http://www.w3.org/1999/xlink" width="500" zoomAndPan="magnify" viewBox="0 0 375 374.999991" height="500" preserveAspectRatio="xMidYMid meet" version="1.2"><g id="b7f1c2b6db"><path style=" stroke:none;fill-rule:nonzero;fill:#fec4b9;fill-opacity:1;" d="M 293.730469 215.140625 L 293.699219 215.140625 L 258.816406 203.375 L 257.152344 190.425781 L 257.179688 190.425781 C 257.179688 190.425781 291.796875 176.703125 300.59375 152.820312 C 309.390625 128.941406 306.359375 28.066406 306.359375 28.066406 L 209.726562 28.066406 C 209.726562 28.066406 208.300781 88.304688 204.347656 103.277344 C 202.273438 111.074219 197.808594 118.269531 193.992188 123.398438 L 189.71875 128.699219 C 188.535156 130.046875 187.710938 130.894531 187.53125 131.074219 C 187.5 131.109375 187.5 131.109375 187.5 131.109375 C 172.761719 141.503906 161.46875 154.542969 161.46875 154.542969 C 157.546875 151.632812 152.347656 149.820312 145.722656 151.394531 C 135.410156 153.832031 132.675781 160.753906 132.261719 166.1875 C 132.261719 166.1875 123.136719 162.710938 114.878906 168.800781 C 105.8125 175.484375 108.132812 185.347656 108.132812 185.347656 C 108.132812 185.347656 100.226562 182.671875 93.78125 185.96875 C 85.875 190.011719 87.332031 198.59375 87.332031 198.59375 C 87.332031 198.59375 70.007812 188.882812 57.023438 184.988281 C 44.039062 181.097656 3.269531 182.703125 3.269531 182.703125 L 3.269531 263.347656 C 3.269531 263.347656 41.035156 258.179688 50.070312 259.722656 C 59.101562 261.296875 65.730469 268.1875 65.730469 268.1875 C 63.855469 270.476562 62.816406 273.355469 62.816406 276.386719 C 62.816406 277.335938 62.9375 278.289062 63.144531 279.269531 L 74.375 328.84375 C 76.367188 337.605469 85.042969 343.128906 93.808594 341.230469 L 116.15625 336.386719 L 116.183594 336.386719 L 125.515625 342.089844 C 129.140625 344.289062 133.300781 345.449219 137.519531 345.449219 C 143.164062 345.476562 151.457031 345.773438 157.785156 347.199219 C 168.363281 349.546875 175.136719 355.695312 182.6875 356.289062 C 188.152344 356.703125 196.117188 353.289062 200.070312 351.386719 C 201.703125 350.617188 203.546875 350.347656 205.328125 350.675781 L 233.140625 355.488281 C 236.230469 355.992188 239.410156 355.875 242.441406 355.042969 L 269.484375 347.792969 C 275.039062 346.308594 279.851562 342.746094 282.796875 337.8125 C 288.144531 328.902344 297.980469 314.527344 308.707031 308.4375 C 324.8125 299.257812 371.730469 294.742188 371.730469 294.742188 L 371.730469 175.007812 C 348.316406 190.78125 322.167969 204.03125 293.730469 215.140625 Z M 293.730469 215.140625 "/><path style=" stroke:none;fill-rule:nonzero;fill:#f2ada5;fill-opacity:1;" d="M 96.15625 218.792969 C 94.9375 219.03125 93.78125 219.386719 92.679688 219.890625 L 92.679688 219.863281 L 87.332031 198.59375 C 87.332031 198.59375 85.875 190.011719 93.78125 185.96875 C 100.226562 182.671875 108.132812 185.347656 108.132812 185.347656 L 121.355469 223.574219 L 121.355469 223.605469 L 118.117188 250.8125 L 115.441406 232.605469 C 114.253906 224.375 107.210938 218.496094 99.21875 218.496094 C 98.207031 218.496094 97.195312 218.613281 96.15625 218.792969 Z M 96.15625 218.792969 "/><path style=" stroke:none;fill-rule:nonzero;fill:#f7b6ad;fill-opacity:1;" d="M 132.824219 173.40625 L 141.175781 202.097656 C 140.609375 201.949219 140.046875 201.863281 139.480469 201.773438 C 138.796875 201.683594 138.113281 201.625 137.429688 201.625 C 129.851562 201.625 123.257812 207.296875 122.367188 215.050781 L 121.355469 223.574219 L 108.132812 185.347656 C 108.132812 185.347656 105.8125 175.484375 114.878906 168.800781 C 123.136719 162.710938 132.261719 166.1875 132.261719 166.1875 C 131.902344 170.199219 132.824219 173.40625 132.824219 173.40625 Z M 132.824219 173.40625 "/><path style=" stroke:none;fill-rule:nonzero;fill:#f7b6ad;fill-opacity:1;" d="M 209.933594 231.503906 C 210.292969 240.445312 203.871094 248.109375 195.253906 249.058594 C 194.660156 249.121094 194.039062 249.148438 193.441406 249.148438 C 188.09375 249.148438 183.25 246.445312 180.21875 242.199219 L 186.253906 209.019531 C 187.796875 200.40625 182.03125 192.148438 173.386719 190.664062 C 173.355469 190.664062 173.324219 190.664062 173.296875 190.664062 L 173.296875 190.632812 L 171.304688 168.058594 C 170.414062 157.929688 177.546875 148.960938 187.351562 147.859375 C 188.003906 147.800781 188.628906 147.742188 189.28125 147.742188 C 198.820312 147.742188 206.902344 155.523438 207.289062 165.59375 L 207.527344 171.503906 L 208.835938 203.910156 L 209.816406 228.714844 Z M 209.933594 231.503906 "/><path style=" stroke:none;fill-rule:nonzero;fill:#f7b6ad;fill-opacity:1;" d="M 257.152344 190.425781 L 258.816406 203.375 L 250.050781 200.4375 C 245.296875 198.832031 240.125 198.710938 235.28125 200.050781 L 226.128906 202.542969 L 224.078125 183.476562 C 223.902344 181.753906 223.988281 180.089844 224.316406 178.484375 C 225.683594 171.890625 231.179688 166.605469 238.28125 165.859375 C 238.847656 165.800781 239.410156 165.773438 239.945312 165.773438 C 247.910156 165.773438 254.746094 171.683594 255.785156 179.734375 Z M 257.152344 190.425781 "/><path style=" stroke:none;fill-rule:nonzero;fill:#ffd7d2;fill-opacity:1;" d="M 187.53125 131.078125 C 188.300781 130.304688 200.484375 117.800781 204.347656 103.277344 C 208.300781 88.304688 209.726562 28.066406 209.726562 28.066406 L 306.359375 28.066406 C 306.359375 28.066406 309.390625 128.941406 300.59375 152.820312 C 291.796875 176.703125 257.179688 190.425781 257.179688 190.425781 L 257.152344 190.425781 L 255.785156 179.734375 C 254.746094 171.683594 247.910156 165.773438 239.945312 165.773438 C 239.410156 165.773438 238.847656 165.800781 238.28125 165.859375 C 231.179688 166.605469 225.683594 171.890625 224.316406 178.484375 C 217.570312 178.753906 211.957031 176.40625 207.527344 171.503906 L 207.289062 165.59375 C 206.902344 155.523438 198.820312 147.742188 189.28125 147.742188 C 188.628906 147.742188 188.003906 147.800781 187.351562 147.859375 C 177.546875 148.960938 170.414062 157.929688 171.304688 168.058594 C 171.304688 168.058594 168.304688 159.625 161.46875 154.542969 C 161.46875 154.542969 172.761719 141.503906 187.5 131.109375 C 187.5 131.109375 187.5 131.109375 187.53125 131.078125 Z M 187.53125 131.078125 "/><path style=" stroke:none;fill-rule:nonzero;fill:#f7b6ad;fill-opacity:1;" d="M 213.738281 227.050781 L 209.84375 228.714844 L 209.816406 228.714844 L 208.835938 203.910156 L 216.117188 202.246094 C 219.414062 201.476562 222.859375 201.59375 226.128906 202.542969 C 226.871094 202.753906 227.613281 203.019531 228.328125 203.316406 L 323.238281 243.59375 C 328.140625 245.671875 331.261719 250.425781 331.4375 255.59375 C 331.46875 256.546875 331.410156 257.496094 331.230469 258.445312 C 330.042969 264.863281 324.394531 269.464844 317.976562 269.464844 C 317.5625 269.464844 317.175781 269.4375 316.757812 269.40625 L 302.257812 268.101562 C 302.734375 262.84375 299.792969 257.792969 294.859375 255.625 L 230.140625 227.167969 C 224.910156 224.882812 218.996094 224.820312 213.738281 227.050781 Z M 213.738281 227.050781 "/><path style=" stroke:none;fill-rule:nonzero;fill:#f7b6ad;fill-opacity:1;" d="M 175.347656 276.238281 L 205.65625 270.566406 C 199.265625 272.464844 194.15625 277.722656 192.671875 284.613281 C 192.402344 285.863281 192.253906 287.109375 192.253906 288.359375 L 186.3125 287.019531 C 180.726562 285.742188 176.59375 281.464844 175.347656 276.238281 Z M 175.347656 276.238281 "/><path style=" stroke:none;fill-rule:nonzero;fill:#f7b6ad;fill-opacity:1;" d="M 116.15625 336.386719 L 93.808594 341.230469 C 85.042969 343.128906 76.367188 337.605469 74.375 328.84375 L 63.144531 279.269531 C 62.9375 278.289062 62.816406 277.335938 62.816406 276.386719 C 62.816406 273.355469 63.855469 270.476562 65.730469 268.1875 C 67.332031 266.199219 69.5625 264.652344 72.207031 263.882812 C 79.753906 261.683594 87.511719 266.613281 88.726562 274.367188 L 94.375 310.398438 C 95.800781 319.308594 101.03125 327.179688 108.757812 331.871094 Z M 116.15625 336.386719 "/><path style=" stroke:none;fill-rule:nonzero;fill:#ffd7d2;fill-opacity:1;" d="M 92.679688 219.890625 C 93.78125 219.386719 94.9375 219.03125 96.15625 218.792969 C 97.195312 218.613281 98.207031 218.496094 99.21875 218.496094 C 107.210938 218.496094 114.253906 224.375 115.441406 232.605469 L 118.117188 250.8125 L 121.355469 223.605469 L 121.355469 223.574219 L 122.367188 215.050781 C 123.257812 207.296875 129.851562 201.625 137.429688 201.625 C 138.113281 201.625 138.796875 201.683594 139.480469 201.773438 C 140.046875 201.863281 140.609375 201.949219 141.175781 202.097656 C 148.664062 203.96875 153.65625 211.277344 152.496094 219.089844 L 155.140625 203.554688 C 156.449219 195.863281 163.132812 190.425781 170.679688 190.425781 C 171.542969 190.425781 172.40625 190.515625 173.296875 190.664062 C 173.324219 190.664062 173.355469 190.664062 173.386719 190.664062 C 182.03125 192.148438 187.796875 200.40625 186.253906 209.019531 L 180.21875 242.199219 L 175.140625 270.148438 C 174.753906 272.230469 174.839844 274.308594 175.347656 276.238281 C 176.59375 281.464844 180.726562 285.742188 186.3125 287.019531 L 192.253906 288.359375 C 192.253906 287.109375 192.402344 285.863281 192.671875 284.613281 C 194.15625 277.722656 199.265625 272.464844 205.65625 270.566406 C 208.09375 269.824219 210.675781 269.585938 213.320312 269.910156 L 273.671875 277.308594 L 288.054688 279.386719 C 288.648438 279.476562 289.242188 279.507812 289.835938 279.507812 C 295.574219 279.507812 300.714844 275.496094 302.019531 269.734375 C 302.140625 269.199219 302.230469 268.664062 302.257812 268.101562 L 316.757812 269.40625 C 317.175781 269.4375 317.5625 269.464844 317.976562 269.464844 C 324.394531 269.464844 330.042969 264.863281 331.230469 258.445312 C 331.410156 257.496094 331.46875 256.546875 331.4375 255.59375 L 332.328125 255.714844 C 339.195312 256.753906 345.671875 252.269531 347.15625 245.523438 C 347.367188 244.574219 347.453125 243.652344 347.453125 242.703125 C 347.453125 237.148438 343.917969 232.039062 338.480469 230.199219 L 293.730469 215.140625 C 322.167969 204.03125 348.316406 190.78125 371.730469 175.007812 L 371.730469 294.742188 C 371.730469 294.742188 324.8125 299.257812 308.707031 308.4375 C 297.980469 314.527344 288.144531 328.902344 282.796875 337.8125 C 279.851562 342.746094 275.039062 346.308594 269.484375 347.792969 L 242.441406 355.042969 C 239.410156 355.875 236.230469 355.992188 233.140625 355.488281 L 205.328125 350.675781 C 203.546875 350.347656 201.703125 350.617188 200.070312 351.386719 C 196.117188 353.289062 188.152344 356.703125 182.6875 356.289062 C 175.140625 355.695312 168.363281 349.546875 157.785156 347.199219 C 151.457031 345.773438 143.164062 345.476562 137.519531 345.449219 C 133.300781 345.449219 129.140625 344.289062 125.515625 342.089844 L 116.183594 336.386719 L 116.15625 336.386719 L 108.757812 331.871094 C 101.03125 327.179688 95.800781 319.308594 94.375 310.398438 L 88.726562 274.367188 L 82.964844 237.503906 C 81.773438 229.929688 85.933594 222.773438 92.679688 219.890625 Z M 92.679688 219.890625 "/><path style=" stroke:none;fill-rule:nonzero;fill:#3a322b;fill-opacity:1;" d="M 371.445312 291.78125 C 369.503906 291.964844 323.699219 296.476562 307.234375 305.839844 C 296.332031 312.042969 286.546875 325.824219 280.257812 336.292969 C 277.699219 340.550781 273.597656 343.621094 268.707031 344.929688 L 241.671875 352.179688 C 239.074219 352.875 236.304688 352.996094 233.660156 352.542969 L 205.832031 347.738281 C 203.425781 347.320312 200.992188 347.65625 198.789062 348.714844 C 192.148438 351.914062 186.351562 353.601562 182.910156 353.320312 C 179.59375 353.058594 176.234375 351.4375 172.34375 349.566406 C 168.394531 347.664062 163.917969 345.511719 158.4375 344.292969 C 151.894531 342.839844 143.460938 342.5 137.539062 342.480469 C 133.816406 342.464844 130.195312 341.449219 127.070312 339.546875 L 117.808594 333.902344 C 117.800781 333.894531 117.792969 333.894531 117.785156 333.886719 L 110.308594 329.332031 C 103.324219 325.074219 98.59375 318.003906 97.328125 309.929688 L 85.894531 237.035156 C 84.765625 229.804688 89.511719 223.078125 96.710938 221.726562 C 100.355469 221.054688 104.011719 221.851562 107.023438 224.003906 C 110.035156 226.160156 111.984375 229.359375 112.519531 233.019531 L 115.113281 250.882812 L 110.210938 292.175781 C 109.011719 302.273438 113.808594 312.285156 122.4375 317.679688 L 150.929688 335.488281 C 151.421875 335.796875 151.964844 335.9375 152.503906 335.9375 C 153.492188 335.9375 154.460938 335.445312 155.023438 334.542969 C 155.894531 333.148438 155.472656 331.320312 154.082031 330.449219 L 125.589844 312.640625 C 118.902344 308.460938 115.183594 300.699219 116.113281 292.875 L 125.316406 215.390625 C 125.707031 212.113281 127.355469 209.199219 129.960938 207.171875 C 132.566406 205.148438 135.800781 204.28125 139.078125 204.710938 C 142.402344 205.152344 145.324219 206.882812 147.3125 209.578125 C 149.300781 212.277344 150.089844 215.582031 149.527344 218.882812 C 149.527344 218.882812 149.527344 218.882812 149.527344 218.886719 L 138.632812 282.972656 C 136.636719 294.699219 141.769531 306.507812 151.707031 313.058594 L 179.734375 331.53125 C 180.234375 331.859375 180.800781 332.023438 181.363281 332.023438 C 182.328125 332.023438 183.277344 331.550781 183.847656 330.6875 C 184.75 329.320312 184.375 327.472656 183 326.570312 L 154.972656 308.097656 C 147.003906 302.84375 142.890625 293.375 144.488281 283.96875 L 155.382812 219.886719 L 158.074219 204.070312 C 158.648438 200.691406 160.503906 197.738281 163.304688 195.761719 C 166.101562 193.777344 169.5 193.011719 172.882812 193.59375 C 176.28125 194.175781 179.234375 196.054688 181.210938 198.875 C 183.1875 201.695312 183.9375 205.117188 183.320312 208.503906 L 172.226562 269.636719 C 170.542969 278.925781 176.4375 287.832031 185.644531 289.914062 L 189.386719 290.761719 C 190.214844 299.261719 195.988281 306.683594 204.59375 309.335938 C 224.546875 315.496094 250.039062 322.664062 260.476562 322.664062 C 260.902344 322.664062 261.300781 322.652344 261.671875 322.628906 C 277.183594 321.621094 289.195312 305.390625 289.699219 304.703125 C 290.667969 303.382812 290.375 301.523438 289.054688 300.558594 C 287.730469 299.589844 285.867188 299.875 284.902344 301.203125 C 284.792969 301.347656 274.003906 315.875 261.285156 316.699219 C 254.660156 317.085938 234.605469 312.378906 206.34375 303.65625 C 198.46875 301.230469 193.839844 293.316406 195.574219 285.242188 C 196.835938 279.367188 201.167969 274.984375 206.585938 273.414062 L 209.902344 272.792969 C 210.902344 272.726562 211.925781 272.746094 212.960938 272.875 L 273.253906 280.265625 L 287.636719 282.324219 C 295.253906 283.410156 302.492188 278.601562 304.613281 271.296875 L 316.503906 272.367188 C 317.011719 272.414062 317.515625 272.429688 318.019531 272.429688 C 325.894531 272.429688 332.6875 266.875 334.148438 258.984375 C 334.15625 258.9375 334.152344 258.886719 334.164062 258.839844 C 334.191406 258.839844 334.226562 258.84375 334.257812 258.84375 C 341.71875 258.84375 348.410156 253.628906 350.050781 246.15625 C 351.824219 238.085938 347.253906 230.015625 339.421875 227.378906 L 302.265625 214.878906 C 328.675781 204.050781 352.59375 191.496094 373.394531 177.476562 C 374.757812 176.558594 375.117188 174.710938 374.199219 173.351562 C 373.28125 171.992188 371.429688 171.632812 370.074219 172.550781 C 347.9375 187.472656 322.210938 200.726562 293.617188 211.972656 L 261.539062 201.171875 L 260.398438 192.277344 C 268.304688 188.785156 295.433594 175.457031 303.382812 153.847656 C 312.273438 129.695312 309.453125 32.117188 309.328125 27.976562 C 309.28125 26.335938 307.816406 24.984375 306.269531 25.097656 C 304.628906 25.148438 303.339844 26.515625 303.386719 28.152344 C 303.417969 29.15625 306.300781 128.714844 297.808594 151.792969 C 291.195312 169.773438 268.429688 181.949219 259.609375 186.09375 L 258.742188 179.339844 C 257.445312 169.214844 248.152344 161.84375 237.972656 162.910156 C 232.929688 163.4375 228.390625 165.902344 225.203125 169.851562 C 223.820312 171.566406 222.785156 173.484375 222.074219 175.503906 C 217.503906 175.253906 213.683594 173.484375 210.453125 170.222656 L 210.265625 165.472656 C 210.019531 159.417969 207.285156 153.71875 202.765625 149.828125 C 198.351562 146.03125 192.78125 144.296875 187.035156 144.914062 C 178.949219 145.800781 172.386719 151.40625 169.648438 158.765625 C 168.515625 157.203125 167.199219 155.683594 165.710938 154.28125 C 172.449219 147.070312 194.988281 124.484375 215.160156 121.6875 C 236.640625 118.695312 257.019531 131.628906 257.222656 131.761719 C 258.601562 132.648438 260.441406 132.246094 261.328125 130.875 C 262.21875 129.496094 261.824219 127.660156 260.445312 126.769531 C 259.539062 126.1875 238.03125 112.523438 214.347656 115.804688 C 209.457031 116.480469 204.503906 118.148438 199.679688 120.417969 C 202.691406 115.726562 205.617188 110.082031 207.214844 104.039062 C 211.230469 88.882812 212.640625 30.605469 212.699219 28.132812 C 212.738281 26.492188 211.441406 25.132812 209.800781 25.09375 C 208.09375 24.976562 206.800781 26.351562 206.761719 27.992188 C 206.746094 28.59375 205.308594 88.03125 201.472656 102.519531 C 198.035156 115.496094 187.300781 127.019531 185.640625 128.746094 C 174.050781 136.9375 164.664062 146.625 160.929688 150.6875 C 156.605469 148.199219 151.308594 147.003906 145.035156 148.492188 C 138.921875 149.941406 134.484375 152.964844 131.839844 157.476562 C 130.871094 159.136719 130.242188 160.859375 129.839844 162.539062 C 125.941406 161.902344 119.363281 161.820312 113.125 166.414062 C 106.566406 171.242188 105.082031 177.480469 104.921875 181.613281 C 101.589844 181.148438 96.796875 181.085938 92.425781 183.316406 C 87.484375 185.84375 85.339844 190.015625 84.597656 193.738281 C 78.601562 190.59375 67.261719 184.964844 57.875 182.148438 C 44.570312 178.160156 4.839844 179.652344 3.160156 179.71875 C 1.519531 179.78125 0.242188 181.164062 0.304688 182.804688 C 0.367188 184.441406 1.71875 185.820312 3.390625 185.65625 C 3.789062 185.644531 43.804688 184.132812 56.167969 187.839844 C 66.859375 191.046875 80.808594 198.414062 84.757812 200.558594 L 89.222656 218.304688 C 82.605469 222.242188 78.761719 229.867188 80.03125 237.949219 L 83.890625 262.554688 C 80.113281 260.363281 75.605469 259.78125 71.394531 261.007812 C 69.210938 261.640625 67.289062 262.730469 65.644531 264.109375 C 62.773438 261.734375 57.351562 257.964844 50.578125 256.796875 C 41.347656 255.203125 6.785156 259.859375 2.875 260.394531 C 1.25 260.617188 0.109375 262.113281 0.332031 263.742188 C 0.550781 265.367188 2.050781 266.476562 3.679688 266.28125 C 14.0625 264.863281 42.539062 261.457031 49.570312 262.648438 C 55.015625 263.585938 59.53125 266.765625 61.867188 268.695312 C 60.042969 272.011719 59.351562 275.960938 60.25 279.914062 L 71.492188 329.492188 C 73.515625 338.433594 81.542969 344.554688 90.378906 344.554688 C 91.722656 344.554688 93.085938 344.414062 94.445312 344.121094 L 115.667969 339.535156 L 123.988281 344.605469 C 128.039062 347.074219 132.71875 348.386719 137.527344 348.410156 C 143.160156 348.433594 151.136719 348.742188 157.160156 350.082031 C 161.96875 351.148438 165.9375 353.058594 169.777344 354.90625 C 174.019531 356.953125 178.027344 358.878906 182.453125 359.230469 C 182.851562 359.261719 183.257812 359.277344 183.675781 359.277344 C 189.3125 359.277344 196.328125 356.492188 201.378906 354.058594 C 202.457031 353.539062 203.648438 353.375 204.828125 353.582031 L 232.65625 358.386719 C 236.152344 358.992188 239.804688 358.824219 243.222656 357.90625 L 270.257812 350.65625 C 276.644531 348.945312 282.007812 344.925781 285.363281 339.335938 C 290.210938 331.265625 299.886719 316.851562 310.1875 310.992188 C 325.546875 302.25 371.566406 297.722656 372.027344 297.679688 C 373.664062 297.519531 374.855469 296.070312 374.699219 294.4375 C 374.53125 292.820312 373.105469 291.644531 371.445312 291.78125 Z M 189.765625 283.988281 C 189.710938 284.230469 189.6875 284.476562 189.640625 284.71875 L 186.957031 284.109375 C 183.628906 283.359375 180.996094 281.234375 179.433594 278.488281 L 193.347656 275.886719 C 191.664062 278.242188 190.410156 280.96875 189.765625 283.988281 Z M 288.476562 276.4375 L 274.035156 274.375 L 213.683594 266.972656 C 210.648438 266.597656 207.691406 266.875 204.933594 267.671875 L 177.90625 272.726562 C 177.90625 272.054688 177.949219 271.375 178.070312 270.691406 L 182.132812 248.3125 C 185.429688 250.757812 189.40625 252.132812 193.527344 252.132812 C 194.210938 252.132812 194.894531 252.097656 195.582031 252.023438 C 205.722656 250.90625 213.335938 241.84375 212.914062 231.390625 L 212.886719 230.648438 L 214.902344 229.792969 C 219.375 227.898438 224.492188 227.9375 228.941406 229.890625 L 293.652344 258.332031 C 297.792969 260.152344 300.085938 264.679688 299.109375 269.089844 C 298.039062 273.914062 293.363281 277.132812 288.476562 276.4375 Z M 328.304688 257.898438 C 327.3125 263.261719 322.496094 266.933594 317.035156 266.441406 L 305.15625 265.375 C 304.5625 260.011719 301.195312 255.160156 296.042969 252.898438 L 231.328125 224.449219 C 225.40625 221.847656 218.59375 221.796875 212.625 224.304688 L 211.902344 206.246094 L 216.78125 205.132812 C 220.273438 204.339844 223.863281 204.660156 227.15625 206.054688 L 322.082031 246.328125 C 326.644531 248.265625 329.203125 253.023438 328.304688 257.898438 Z M 344.246094 244.875 C 343.195312 249.652344 338.882812 252.941406 334.105469 252.859375 C 333.101562 247.613281 329.597656 243.0625 324.402344 240.855469 L 235.375 203.089844 L 236.066406 202.902344 C 240.367188 201.714844 244.878906 201.835938 249.113281 203.261719 L 337.527344 233.003906 C 342.476562 234.671875 345.367188 239.773438 344.246094 244.875 Z M 238.589844 168.820312 C 245.59375 168.09375 251.957031 173.148438 252.847656 180.09375 L 255.28125 199.066406 L 251.003906 197.628906 C 245.644531 195.828125 239.933594 195.671875 234.484375 197.175781 L 228.71875 198.761719 L 227.019531 183.152344 C 226.644531 179.695312 227.640625 176.292969 229.828125 173.582031 C 232.015625 170.875 235.125 169.183594 238.589844 168.820312 Z M 221.019531 181.371094 C 221.007812 182.175781 221.023438 182.984375 221.113281 183.796875 L 222.757812 198.886719 C 220.335938 198.652344 217.882812 198.789062 215.460938 199.34375 L 211.660156 200.207031 L 210.769531 178.035156 C 213.839844 179.929688 217.257812 181.050781 221.019531 181.371094 Z M 187.679688 150.824219 C 191.753906 150.382812 195.734375 151.625 198.886719 154.335938 C 202.167969 157.15625 204.148438 161.304688 204.328125 165.714844 L 206.976562 231.625 C 207.273438 238.976562 201.984375 245.339844 194.933594 246.113281 C 190.578125 246.601562 186.265625 244.789062 183.390625 241.398438 L 189.171875 209.554688 C 190.070312 204.59375 188.972656 199.589844 186.082031 195.457031 C 183.625 191.945312 180.125 189.453125 176.078125 188.25 L 174.261719 167.796875 C 173.507812 159.335938 179.527344 151.71875 187.679688 150.824219 Z M 146.402344 154.277344 C 160.710938 150.863281 167.378906 166.191406 168.371094 168.730469 L 170.035156 187.46875 C 166.414062 187.59375 162.894531 188.757812 159.867188 190.902344 C 155.769531 193.800781 153.050781 198.117188 152.210938 203.0625 L 151.769531 205.65625 C 149.621094 202.898438 146.800781 200.859375 143.574219 199.71875 L 135.6875 172.585938 C 135.671875 172.515625 133.847656 165.757812 136.984375 160.445312 C 138.78125 157.410156 141.949219 155.335938 146.402344 154.277344 Z M 116.640625 171.203125 C 121.414062 167.691406 126.488281 167.949219 129.207031 168.453125 C 129.273438 171.6875 129.917969 174.027344 129.976562 174.21875 L 137.082031 198.683594 C 133.191406 198.753906 129.441406 200.046875 126.3125 202.480469 C 123.40625 204.734375 121.296875 207.738281 120.183594 211.152344 L 111.003906 184.566406 C 110.820312 183.574219 109.714844 176.304688 116.640625 171.203125 Z M 90.25 198.09375 C 90.238281 198.03125 89.238281 191.632812 95.132812 188.617188 C 98.964844 186.648438 103.609375 187.316406 105.851562 187.820312 L 118.316406 223.929688 L 117.691406 229.152344 C 116.445312 225.144531 113.964844 221.660156 110.472656 219.167969 C 106.132812 216.066406 100.859375 214.898438 95.609375 215.890625 C 95.328125 215.945312 95.058594 216.023438 94.785156 216.085938 Z M 93.179688 338.328125 C 86.035156 339.867188 78.894531 335.328125 77.277344 328.195312 L 66.035156 278.613281 C 64.859375 273.429688 67.941406 268.207031 73.042969 266.722656 C 75.824219 265.917969 78.816406 266.34375 81.257812 267.894531 C 83.699219 269.445312 85.355469 271.976562 85.804688 274.832031 C 85.804688 274.832031 85.804688 274.832031 85.804688 274.835938 L 91.453125 310.851562 C 92.988281 320.65625 98.734375 329.238281 107.210938 334.402344 L 108.292969 335.0625 Z M 93.179688 338.328125 "/></g></svg>