<svg xmlns="http://www.w3.org/2000/svg" xmlns:xlink="http://www.w3.org/1999/xlink" width="500" zoomAndPan="magnify" viewBox="0 0 375 374.999991" height="500" preserveAspectRatio="xMidYMid meet" version="1.2"><defs><clipPath id="0fbb344f95"><path d="M 0.34375 24 L 374.59375 24 L 374.59375 364.5 L 0.34375 364.5 Z M 0.34375 24 "/></clipPath></defs><g id="e44ef24c66"><path style=" stroke:none;fill-rule:nonzero;fill:#fec4b9;fill-opacity:1;" d="M 180 236.652344 C 171.617188 232.640625 161.542969 222.804688 154.554688 215.230469 C 149.761719 210.046875 150.378906 201.894531 155.867188 197.460938 L 155.972656 197.371094 C 160.488281 193.722656 166.9375 193.78125 171.4375 197.460938 C 176.941406 201.957031 184.769531 207.265625 192.113281 208.4375 C 196.429688 209.128906 201.625 208.988281 206.667969 208.484375 C 210.199219 201.777344 212.171875 196.328125 212.171875 196.328125 C 196.699219 193.863281 183.621094 183.726562 179.167969 168.871094 C 172.738281 147.449219 186.675781 124.339844 210.304688 117.253906 C 233.921875 110.164062 258.285156 121.792969 264.707031 143.214844 C 269.457031 159.019531 263.113281 175.738281 249.976562 186.261719 C 249.976562 186.261719 259.039062 208.347656 255.25 230.875 C 251.464844 253.398438 219.5 305.21875 182.417969 305.21875 C 145.339844 305.21875 144 270.835938 133.25 258.183594 C 127.9375 251.921875 119.398438 246.738281 112.121094 243.097656 C 107.984375 241.019531 105.714844 236.890625 105.714844 232.660156 C 105.714844 230.082031 106.566406 227.453125 108.363281 225.257812 C 111.589844 221.304688 117.003906 219.90625 121.742188 221.789062 C 131.824219 225.800781 148.648438 233.015625 155.792969 239.152344 C 158.003906 241.042969 160.3125 243.609375 162.574219 246.472656 C 162.574219 246.472656 171.054688 242.332031 180 236.652344 Z M 180 236.652344 "/><path style=" stroke:none;fill-rule:nonzero;fill:#f48ca7;fill-opacity:1;" d="M 369.765625 135.085938 C 371.035156 136.910156 371.515625 139.128906 371.121094 141.324219 C 370.722656 143.511719 369.5 145.417969 367.664062 146.683594 C 366.265625 147.65625 364.625 148.175781 362.917969 148.175781 C 360.179688 148.175781 357.621094 146.832031 356.0625 144.585938 L 333.15625 111.582031 L 333.15625 219.769531 C 354.796875 223.710938 371.257812 242.683594 371.257812 265.4375 C 371.257812 291.039062 350.417969 311.867188 324.8125 311.867188 C 299.210938 311.867188 278.371094 291.039062 278.371094 265.4375 C 278.371094 242.683594 294.832031 223.710938 316.472656 219.769531 L 316.472656 111.582031 L 293.566406 144.59375 C 292.007812 146.832031 289.449219 148.175781 286.710938 148.175781 C 285.003906 148.175781 283.359375 147.65625 281.957031 146.683594 C 280.128906 145.417969 278.898438 143.511719 278.507812 141.324219 C 278.113281 139.128906 278.59375 136.910156 279.863281 135.085938 L 317.964844 80.1875 C 319.523438 77.945312 322.082031 76.605469 324.8125 76.605469 C 327.546875 76.605469 330.105469 77.945312 331.664062 80.1875 Z M 354.574219 265.4375 C 354.574219 249.03125 341.226562 235.679688 324.8125 235.679688 C 308.402344 235.679688 295.054688 249.03125 295.054688 265.4375 C 295.054688 281.84375 308.402344 295.191406 324.8125 295.191406 C 341.226562 295.191406 354.574219 281.84375 354.574219 265.4375 Z M 354.574219 265.4375 "/><path style=" stroke:none;fill-rule:nonzero;fill:#1ea6bc;fill-opacity:1;" d="M 81.484375 245.441406 C 86.085938 245.441406 89.824219 249.179688 89.824219 253.777344 C 89.824219 258.375 86.085938 262.113281 81.484375 262.113281 L 58.09375 262.113281 L 58.09375 303.53125 C 58.09375 308.128906 54.347656 311.867188 49.75 311.867188 C 45.152344 311.867188 41.410156 308.128906 41.410156 303.53125 L 41.410156 262.113281 L 18.023438 262.113281 C 13.421875 262.113281 9.683594 258.375 9.683594 253.777344 C 9.683594 249.179688 13.421875 245.441406 18.023438 245.441406 L 41.410156 245.441406 L 41.410156 168.699219 C 19.773438 164.761719 3.3125 145.789062 3.3125 123.03125 C 3.3125 97.429688 24.140625 76.605469 49.75 76.605469 C 75.359375 76.605469 96.195312 97.429688 96.195312 123.03125 C 96.195312 145.789062 79.734375 164.761719 58.09375 168.699219 L 58.09375 245.441406 Z M 79.511719 123.03125 C 79.511719 106.628906 66.160156 93.277344 49.75 93.277344 C 33.339844 93.277344 19.988281 106.628906 19.988281 123.03125 C 19.988281 139.4375 33.339844 152.789062 49.75 152.789062 C 66.160156 152.789062 79.511719 139.4375 79.511719 123.03125 Z M 79.511719 123.03125 "/><path style=" stroke:none;fill-rule:nonzero;fill:#f7b6ad;fill-opacity:1;" d="M 212.171875 196.328125 C 216.554688 202.683594 226.832031 204.894531 226.832031 204.894531 C 226.832031 204.894531 217.082031 207.460938 206.667969 208.484375 C 210.199219 201.777344 212.171875 196.328125 212.171875 196.328125 Z M 212.171875 196.328125 "/><path style=" stroke:none;fill-rule:nonzero;fill:#f7b6ad;fill-opacity:1;" d="M 182.78125 237.785156 C 197.394531 242.546875 220.917969 240.070312 220.917969 240.070312 C 220.917969 240.070312 217.433594 250.304688 200.035156 250.046875 C 182.640625 249.785156 175.890625 237.328125 180 253.421875 C 184.109375 269.515625 179.101562 272.335938 179.101562 272.335938 C 179.101562 272.335938 171.121094 257.253906 162.574219 246.472656 C 162.574219 246.472656 171.054688 242.332031 180 236.652344 C 180.949219 237.113281 181.882812 237.488281 182.78125 237.785156 Z M 182.78125 237.785156 "/><g clip-rule="nonzero" clip-path="url(#0fbb344f95)"><path style=" stroke:none;fill-rule:nonzero;fill:#3a322b;fill-opacity:1;" d="M 267.554688 142.363281 C 260.667969 119.40625 234.601562 106.867188 209.449219 114.410156 C 184.296875 121.953125 169.4375 146.765625 176.324219 169.722656 C 180.640625 184.101562 192.640625 194.890625 208.09375 198.542969 C 207.3125 200.390625 206.191406 202.894531 204.777344 205.679688 C 200.476562 206.035156 196.179688 206.082031 192.578125 205.507812 C 185.8125 204.429688 178.367188 199.285156 173.316406 195.160156 C 167.746094 190.613281 159.667969 190.574219 154.101562 195.070312 L 154.003906 195.152344 C 150.742188 197.785156 148.699219 201.691406 148.394531 205.867188 C 148.09375 210.03125 149.542969 214.179688 152.371094 217.242188 C 158.511719 223.890625 166.597656 231.828125 174.183594 236.742188 C 169.695312 239.414062 165.679688 241.546875 163.363281 242.746094 C 161.476562 240.5 159.574219 238.484375 157.726562 236.894531 C 150.566406 230.75 134.804688 223.789062 122.84375 219.035156 C 116.871094 216.660156 110.128906 218.40625 106.0625 223.382812 C 103.222656 226.855469 102.132812 231.367188 103.074219 235.753906 C 104.003906 240.113281 106.820312 243.753906 110.796875 245.746094 C 119.90625 250.3125 126.886719 255.273438 130.988281 260.097656 C 133.628906 263.210938 135.808594 268.148438 138.117188 273.378906 C 144.601562 288.066406 153.480469 308.183594 182.421875 308.183594 C 221.519531 308.183594 254.234375 254.828125 258.179688 231.363281 C 261.433594 212.019531 255.675781 193.300781 253.496094 187.1875 C 266.789062 175.550781 272.300781 158.179688 267.554688 142.363281 Z M 247.234375 187.386719 C 247.320312 187.601562 255.921875 209 252.328125 230.382812 C 248.738281 251.714844 217.800781 302.25 182.417969 302.25 C 157.347656 302.25 150.015625 285.640625 143.546875 270.984375 C 141.058594 265.347656 138.707031 260.027344 135.511719 256.257812 C 130.832031 250.75 123.414062 245.429688 113.453125 240.441406 C 111.097656 239.261719 109.429688 237.101562 108.875 234.511719 C 108.316406 231.894531 108.964844 229.207031 110.65625 227.136719 C 113.082031 224.171875 117.097656 223.132812 120.648438 224.546875 C 130.097656 228.304688 146.976562 235.488281 153.859375 241.398438 C 163.828125 249.957031 176.351562 273.480469 176.476562 273.71875 C 177.242188 275.164062 179.039062 275.71875 180.488281 274.953125 C 181.9375 274.183594 182.488281 272.390625 181.722656 270.941406 C 181.339844 270.222656 174.765625 257.871094 167.09375 247.496094 C 170.144531 245.902344 175.023438 243.246094 180.242188 240.003906 C 180.789062 240.226562 181.332031 240.429688 181.863281 240.605469 C 189.402344 243.0625 199.03125 243.6875 206.882812 243.6875 C 214.6875 243.6875 220.742188 243.070312 221.230469 243.019531 C 222.863281 242.847656 224.042969 241.386719 223.871094 239.757812 C 223.699219 238.128906 222.253906 236.945312 220.609375 237.117188 C 220.382812 237.140625 197.535156 239.472656 183.703125 234.964844 C 177.351562 232.894531 167.773438 225.171875 156.734375 213.21875 C 154.988281 211.328125 154.128906 208.871094 154.316406 206.296875 C 154.503906 203.714844 155.71875 201.394531 157.738281 199.761719 L 157.839844 199.679688 C 161.226562 196.941406 166.15625 196.976562 169.5625 199.753906 C 175.179688 204.34375 183.574219 210.082031 191.648438 211.367188 C 205.328125 213.546875 226.683594 207.996094 227.585938 207.757812 C 229.171875 207.339844 230.117188 205.71875 229.699219 204.136719 C 229.285156 202.550781 227.664062 201.605469 226.074219 202.019531 C 225.960938 202.050781 219.574219 203.710938 211.78125 204.859375 C 213.792969 200.546875 214.902344 197.503906 214.964844 197.332031 C 215.261719 196.5 215.175781 195.578125 214.726562 194.816406 C 214.277344 194.058594 213.511719 193.535156 212.640625 193.394531 C 197.730469 191.023438 185.996094 181.296875 182.007812 168.015625 C 176.0625 148.191406 189.136719 126.695312 211.15625 120.09375 C 233.167969 113.488281 255.925781 124.242188 261.871094 144.066406 C 266.109375 158.199219 260.714844 173.855469 248.125 183.949219 C 247.097656 184.773438 246.734375 186.171875 247.234375 187.386719 Z M 82.480469 123.035156 C 82.480469 104.992188 67.800781 90.3125 49.753906 90.3125 C 31.707031 90.3125 17.023438 104.992188 17.023438 123.035156 C 17.023438 141.078125 31.707031 155.757812 49.753906 155.757812 C 67.800781 155.757812 82.480469 141.078125 82.480469 123.035156 Z M 22.957031 123.035156 C 22.957031 108.261719 34.976562 96.246094 49.753906 96.246094 C 64.527344 96.246094 76.546875 108.261719 76.546875 123.035156 C 76.546875 137.804688 64.527344 149.824219 49.753906 149.824219 C 34.976562 149.824219 22.957031 137.804688 22.957031 123.035156 Z M 49.753906 314.832031 C 55.988281 314.832031 61.058594 309.761719 61.058594 303.527344 L 61.058594 265.082031 L 81.484375 265.082031 C 87.71875 265.082031 92.789062 260.011719 92.789062 253.777344 C 92.789062 247.542969 87.71875 242.472656 81.484375 242.472656 L 61.058594 242.472656 L 61.058594 171.113281 C 83.28125 165.914062 99.160156 146.074219 99.160156 123.035156 C 99.160156 95.796875 76.996094 73.636719 49.753906 73.636719 C 22.507812 73.636719 0.34375 95.796875 0.34375 123.035156 C 0.34375 146.074219 16.222656 165.910156 38.445312 171.113281 L 38.445312 242.472656 L 18.019531 242.472656 C 11.789062 242.472656 6.714844 247.542969 6.714844 253.777344 C 6.714844 260.011719 11.789062 265.082031 18.019531 265.082031 L 38.445312 265.082031 L 38.445312 303.527344 C 38.445312 309.761719 43.519531 314.832031 49.753906 314.832031 Z M 18.019531 259.148438 C 15.058594 259.148438 12.648438 256.742188 12.648438 253.777344 C 12.648438 250.816406 15.058594 248.40625 18.019531 248.40625 L 41.414062 248.40625 C 43.050781 248.40625 44.378906 247.078125 44.378906 245.441406 L 44.378906 168.703125 C 44.378906 167.269531 43.355469 166.039062 41.945312 165.78125 C 21.277344 162.019531 6.277344 144.039062 6.277344 123.035156 C 6.277344 99.066406 25.78125 79.570312 49.753906 79.570312 C 73.722656 79.570312 93.226562 99.066406 93.226562 123.035156 C 93.226562 144.039062 78.226562 162.019531 57.5625 165.78125 C 56.152344 166.039062 55.125 167.269531 55.125 168.703125 L 55.125 245.441406 C 55.125 247.078125 56.453125 248.40625 58.09375 248.40625 L 81.484375 248.40625 C 84.445312 248.40625 86.855469 250.816406 86.855469 253.777344 C 86.855469 256.742188 84.445312 259.148438 81.484375 259.148438 L 58.089844 259.148438 C 56.453125 259.148438 55.125 260.476562 55.125 262.117188 L 55.125 303.527344 C 55.125 306.488281 52.714844 308.898438 49.753906 308.898438 C 46.789062 308.898438 44.378906 306.488281 44.378906 303.527344 L 44.378906 262.117188 C 44.378906 260.476562 43.050781 259.148438 41.414062 259.148438 Z M 353.621094 146.277344 C 355.734375 149.324219 359.210938 151.144531 362.917969 151.144531 C 365.230469 151.144531 367.457031 150.445312 369.359375 149.125 C 371.84375 147.402344 373.503906 144.820312 374.042969 141.847656 C 374.578125 138.875 373.925781 135.871094 372.203125 133.394531 L 334.105469 78.5 C 331.992188 75.453125 328.519531 73.636719 324.816406 73.636719 C 321.109375 73.636719 317.636719 75.453125 315.527344 78.496094 L 277.425781 133.394531 C 275.703125 135.875 275.050781 138.878906 275.585938 141.847656 C 276.125 144.820312 277.785156 147.402344 280.265625 149.125 C 282.167969 150.445312 284.398438 151.144531 286.710938 151.144531 C 290.417969 151.144531 293.894531 149.328125 296.003906 146.285156 L 313.507812 121.0625 L 313.507812 217.359375 C 291.285156 222.558594 275.40625 242.394531 275.40625 265.4375 C 275.40625 292.675781 297.570312 314.835938 324.816406 314.835938 C 352.058594 314.835938 374.222656 292.675781 374.222656 265.4375 C 374.222656 242.394531 358.34375 222.558594 336.125 217.359375 L 336.125 121.0625 Z M 332.621094 222.6875 C 353.285156 226.449219 368.285156 244.429688 368.285156 265.433594 C 368.285156 289.402344 348.785156 308.898438 324.8125 308.898438 C 300.84375 308.898438 281.339844 289.402344 281.339844 265.433594 C 281.339844 244.429688 296.339844 226.449219 317.007812 222.6875 C 318.417969 222.429688 319.441406 221.203125 319.441406 219.769531 L 319.441406 111.582031 C 319.441406 110.285156 318.597656 109.136719 317.359375 108.75 C 317.066406 108.660156 316.769531 108.613281 316.472656 108.613281 C 315.519531 108.613281 314.601562 109.078125 314.035156 109.890625 L 291.125 142.898438 C 290.121094 144.347656 288.472656 145.207031 286.710938 145.207031 C 285.609375 145.207031 284.550781 144.878906 283.648438 144.25 C 282.46875 143.429688 281.679688 142.203125 281.425781 140.792969 C 281.171875 139.378906 281.480469 137.953125 282.300781 136.773438 L 320.398438 81.878906 C 321.402344 80.433594 323.050781 79.570312 324.8125 79.570312 C 326.574219 79.570312 328.222656 80.433594 329.226562 81.878906 L 367.328125 136.777344 C 368.144531 137.953125 368.457031 139.378906 368.199219 140.792969 C 367.945312 142.203125 367.15625 143.433594 365.972656 144.253906 C 365.070312 144.878906 364.015625 145.210938 362.914062 145.210938 C 361.152344 145.210938 359.5 144.347656 358.496094 142.898438 L 335.589844 109.890625 C 334.851562 108.824219 333.5 108.363281 332.265625 108.753906 C 331.027344 109.140625 330.183594 110.285156 330.183594 111.582031 L 330.183594 219.769531 C 330.1875 221.199219 331.210938 222.429688 332.621094 222.6875 Z M 292.085938 265.433594 C 292.085938 283.476562 306.765625 298.15625 324.8125 298.15625 C 342.859375 298.15625 357.542969 283.476562 357.542969 265.433594 C 357.542969 247.390625 342.859375 232.710938 324.8125 232.710938 C 306.765625 232.710938 292.085938 247.390625 292.085938 265.433594 Z M 351.609375 265.433594 C 351.609375 280.207031 339.589844 292.222656 324.8125 292.222656 C 310.039062 292.222656 298.019531 280.207031 298.019531 265.433594 C 298.019531 250.664062 310.039062 238.644531 324.8125 238.644531 C 339.589844 238.644531 351.609375 250.664062 351.609375 265.433594 Z M 282.824219 67.902344 C 254.539062 43.109375 221.394531 30.003906 186.984375 30.003906 C 152.570312 30.003906 119.429688 43.109375 91.144531 67.902344 C 89.910156 68.984375 88.035156 68.859375 86.957031 67.628906 C 85.875 66.398438 86 64.523438 87.230469 63.441406 C 116.617188 37.683594 151.109375 24.070312 186.984375 24.070312 C 222.859375 24.070312 257.351562 37.683594 286.738281 63.441406 C 287.96875 64.523438 288.09375 66.394531 287.011719 67.628906 C 286.425781 68.296875 285.605469 68.640625 284.78125 68.640625 C 284.085938 68.640625 283.386719 68.398438 282.824219 67.902344 Z M 87.230469 325.027344 C 86 323.945312 85.875 322.074219 86.957031 320.839844 C 88.035156 319.609375 89.910156 319.484375 91.144531 320.566406 C 119.429688 345.359375 152.570312 358.464844 186.984375 358.464844 C 221.398438 358.464844 254.539062 345.359375 282.824219 320.566406 C 284.054688 319.484375 285.933594 319.609375 287.011719 320.839844 C 288.09375 322.074219 287.96875 323.945312 286.738281 325.027344 C 257.351562 350.785156 222.859375 364.398438 186.984375 364.398438 C 151.109375 364.398438 116.617188 350.785156 87.230469 325.027344 Z M 87.230469 325.027344 "/></g></g></svg>