<svg xmlns="http://www.w3.org/2000/svg" xmlns:xlink="http://www.w3.org/1999/xlink" width="500" zoomAndPan="magnify" viewBox="0 0 375 374.999991" height="500" preserveAspectRatio="xMidYMid meet" version="1.2"><defs><clipPath id="e5946eb753"><path d="M 30.824219 203.535156 L 344.074219 203.535156 L 344.074219 374.707031 L 30.824219 374.707031 Z M 30.824219 203.535156 "/></clipPath></defs><g id="87a8f0d8c1"><path style=" stroke:none;fill-rule:nonzero;fill:#6A5952;fill-opacity:1;" d="M 177.058594 155.753906 C 177.039062 155.867188 176.992188 155.972656 176.964844 156.082031 C 176.914062 156.257812 176.878906 156.433594 176.808594 156.605469 C 176.757812 156.726562 176.679688 156.84375 176.621094 156.964844 C 176.542969 157.109375 176.476562 157.261719 176.386719 157.402344 C 176.304688 157.527344 176.191406 157.640625 176.097656 157.757812 C 175.996094 157.878906 175.914062 158.007812 175.800781 158.121094 L 175.796875 158.121094 L 159.449219 174.503906 C 159.101562 174.851562 158.746094 175.109375 158.335938 175.320312 L 196.089844 213.101562 C 205.765625 222.773438 221.433594 222.832031 231.105469 213.160156 L 268.71875 175.613281 L 268.714844 175.613281 L 251.386719 158.71875 C 251.386719 158.71875 251.386719 158.71875 251.382812 158.71875 L 245.902344 163.929688 C 242.683594 167.144531 238.417969 168.773438 233.878906 168.769531 C 229.371094 168.765625 225.136719 166.9375 221.953125 163.753906 C 221.9375 163.742188 221.929688 163.695312 221.917969 163.683594 C 218.769531 160.542969 216.960938 156.164062 216.960938 151.707031 C 216.960938 147.207031 218.953125 142.945312 222.140625 139.722656 L 227.871094 134.214844 L 213.621094 119.78125 L 213.589844 119.78125 L 193.300781 140.347656 C 193.296875 140.347656 193.289062 140.496094 193.289062 140.496094 C 193.289062 140.496094 193.285156 140.570312 193.285156 140.574219 C 193.179688 140.679688 193.054688 140.792969 192.945312 140.886719 C 192.816406 140.992188 192.695312 141.125 192.5625 141.214844 C 192.472656 141.273438 192.375 141.316406 192.285156 141.371094 C 192.113281 141.46875 191.945312 141.574219 191.761719 141.648438 C 191.6875 141.679688 191.605469 141.695312 191.523438 141.71875 C 191.324219 141.789062 191.121094 141.863281 190.914062 141.898438 C 190.878906 141.910156 190.84375 141.90625 190.808594 141.910156 C 190.265625 142.003906 189.703125 142.007812 189.160156 141.898438 C 189.15625 141.898438 189.152344 141.898438 189.148438 141.898438 C 188.863281 141.839844 188.582031 141.757812 188.3125 141.652344 C 188.273438 141.632812 188.234375 141.605469 188.195312 141.585938 C 187.691406 141.367188 187.210938 141.058594 186.792969 140.644531 C 186.792969 140.640625 186.792969 140.640625 186.789062 140.636719 L 178.058594 131.886719 C 176.585938 130.429688 174.625 129.617188 172.554688 129.617188 C 170.5 129.617188 168.546875 130.429688 167.054688 131.90625 C 165.59375 133.367188 164.78125 135.324219 164.78125 137.40625 C 164.785156 139.464844 165.589844 141.402344 167.046875 142.859375 C 167.050781 142.863281 167.054688 142.867188 167.0625 142.875 L 175.800781 151.632812 L 175.808594 151.636719 C 175.921875 151.753906 176.003906 151.882812 176.105469 152.003906 C 176.199219 152.121094 176.308594 152.230469 176.390625 152.355469 C 176.46875 152.472656 176.519531 152.597656 176.582031 152.722656 C 176.660156 152.867188 176.75 153.003906 176.808594 153.15625 C 176.859375 153.269531 176.878906 153.390625 176.914062 153.507812 C 176.964844 153.675781 177.03125 153.835938 177.0625 154.003906 C 177.085938 154.121094 177.082031 154.246094 177.097656 154.371094 C 177.117188 154.539062 177.144531 154.707031 177.144531 154.878906 C 177.144531 154.984375 177.121094 155.09375 177.113281 155.203125 C 177.101562 155.386719 177.097656 155.570312 177.058594 155.753906 "/><path style=" stroke:none;fill-rule:nonzero;fill:#6A5952;fill-opacity:1;" d="M 257.269531 77.09375 L 262.566406 82.574219 C 265.777344 85.816406 267.429688 90.074219 267.429688 94.574219 C 267.429688 99.0625 265.625 103.304688 262.433594 106.527344 C 255.785156 113.136719 245.011719 113.3125 238.417969 106.722656 L 232.894531 101.414062 L 232.890625 101.414062 L 219.796875 113.765625 L 236.769531 130.523438 C 238.566406 132.316406 238.160156 135.433594 237.425781 137.410156 L 237.425781 137.433594 C 237.425781 137.433594 237.425781 137.445312 237.425781 137.445312 L 228.554688 146.179688 C 227.097656 147.652344 226.210938 149.621094 226.210938 151.6875 C 226.210938 153.726562 227.003906 155.726562 228.453125 157.171875 C 228.457031 157.175781 228.441406 157.183594 228.449219 157.1875 C 229.914062 158.652344 231.84375 159.457031 233.898438 159.460938 C 235.980469 159.464844 237.9375 158.640625 239.414062 157.167969 L 248.140625 148.433594 L 248.449219 148.433594 L 248.449219 148.472656 C 249.921875 146.886719 253.226562 147.046875 255.023438 148.839844 L 274.910156 169.011719 L 312.6875 131.390625 C 322.363281 121.71875 322.433594 106.121094 312.757812 96.449219 L 275.042969 58.792969 C 274.855469 58.820312 274.835938 59.40625 274.542969 59.695312 L 257.269531 77.054688 C 257.269531 77.054688 257.269531 77.09375 257.269531 77.09375 "/><path style=" stroke:none;fill-rule:nonzero;fill:#6A5952;fill-opacity:1;" d="M 219.785156 113.765625 L 219.796875 113.75 L 219.785156 113.738281 Z M 219.785156 113.765625 "/><path style=" stroke:none;fill-rule:nonzero;fill:#6A5952;fill-opacity:1;" d="M 275.039062 58.789062 L 275.042969 58.792969 C 275.046875 58.792969 275.050781 58.789062 275.054688 58.789062 C 275.054688 58.789062 275.039062 58.789062 275.039062 58.789062 "/><path style=" stroke:none;fill-rule:nonzero;fill:#6A5952;fill-opacity:1;" d="M 152.101562 169.363281 C 152.3125 168.957031 152.605469 168.460938 152.949219 168.117188 L 166.132812 154.921875 C 166.132812 154.921875 166.132812 154.898438 166.132812 154.894531 L 160.609375 149.375 C 160.597656 149.363281 160.570312 149.347656 160.558594 149.339844 C 157.382812 146.164062 155.617188 141.925781 155.613281 137.421875 C 155.605469 132.886719 157.371094 128.621094 160.585938 125.40625 C 163.824219 122.199219 168.066406 120.441406 172.554688 120.441406 C 177.0625 120.441406 181.316406 122.5 184.539062 125.6875 L 190.039062 131.5 L 207.054688 114.191406 L 207.238281 114.039062 L 188.183594 94.640625 L 188.183594 94.632812 C 187.449219 94.410156 187.582031 94.167969 187.410156 93.914062 C 187.328125 93.785156 187.179688 93.648438 187.109375 93.515625 C 187.039062 93.382812 186.910156 93.253906 186.855469 93.117188 C 186.789062 92.960938 186.730469 92.792969 186.683594 92.632812 C 186.648438 92.507812 186.589844 92.390625 186.566406 92.269531 C 186.53125 92.078125 186.519531 91.890625 186.503906 91.695312 C 186.5 91.597656 186.472656 91.496094 186.472656 91.394531 C 186.472656 91.210938 186.5 91.03125 186.523438 90.851562 C 186.535156 90.738281 186.53125 90.625 186.554688 90.519531 C 186.585938 90.359375 186.644531 90.207031 186.691406 90.054688 C 186.730469 89.921875 186.753906 89.792969 186.804688 89.667969 C 186.867188 89.511719 186.957031 89.371094 187.039062 89.226562 C 187.101562 89.105469 187.148438 88.984375 187.222656 88.871094 C 187.3125 88.738281 187.425781 88.625 187.527344 88.496094 C 187.621094 88.382812 187.699219 88.257812 187.808594 88.148438 L 187.8125 88.148438 L 196.539062 79.402344 C 198.019531 77.929688 198.828125 75.988281 198.832031 73.921875 C 198.832031 71.832031 197.984375 69.832031 196.515625 68.378906 C 195.058594 66.925781 193.128906 66.132812 191.058594 66.132812 C 188.976562 66.132812 187.03125 66.933594 185.589844 68.390625 L 176.820312 77.15625 C 175.390625 79.296875 172.734375 79.5625 170.914062 77.742188 L 151.925781 58.761719 L 114.304688 96.371094 C 104.628906 106.039062 104.628906 121.816406 114.304688 131.484375 L 152.101562 169.363281 "/><path style=" stroke:none;fill-rule:nonzero;fill:#6A5952;fill-opacity:1;" d="M 190.042969 131.507812 L 190.039062 131.5 L 190.035156 131.507812 C 190.03125 131.507812 190.042969 131.507812 190.042969 131.507812 "/><path style=" stroke:none;fill-rule:nonzero;fill:#6A5952;fill-opacity:1;" d="M 179.085938 61.921875 C 182.246094 58.726562 186.503906 56.960938 191.058594 56.960938 C 195.609375 56.957031 199.855469 58.691406 203.050781 61.933594 C 206.246094 65.132812 208.015625 69.398438 208.007812 73.933594 C 208 78.453125 206.234375 82.703125 203.027344 85.890625 L 197.546875 91.382812 C 197.542969 91.386719 197.542969 91.386719 197.546875 91.386719 L 213.5625 107.398438 L 229.632812 91.335938 L 229.636719 91.332031 C 229.742188 91.226562 229.863281 91.144531 229.976562 91.054688 C 230.101562 90.949219 230.222656 90.832031 230.355469 90.746094 C 230.476562 90.667969 230.605469 90.617188 230.730469 90.546875 C 230.871094 90.472656 231.007812 90.386719 231.152344 90.324219 C 231.277344 90.277344 231.40625 90.25 231.53125 90.214844 C 231.6875 90.164062 231.84375 90.105469 232.003906 90.074219 C 232.125 90.050781 232.246094 90.050781 232.371094 90.039062 C 232.539062 90.019531 232.707031 89.988281 232.878906 89.988281 C 233.003906 89.988281 233.128906 90.011719 233.25 90.023438 C 233.421875 90.039062 233.589844 90.039062 233.757812 90.074219 C 233.875 90.097656 233.988281 90.140625 234.105469 90.175781 C 234.273438 90.222656 234.441406 90.257812 234.605469 90.324219 C 234.726562 90.371094 234.835938 90.445312 234.953125 90.507812 C 235.105469 90.582031 235.261719 90.648438 235.40625 90.742188 C 235.523438 90.820312 235.628906 90.925781 235.742188 91.015625 C 235.871094 91.117188 236.003906 91.210938 236.121094 91.328125 L 236.125 91.328125 L 244.875 100.050781 C 247.90625 103.078125 252.839844 103.074219 255.882812 100.046875 C 257.335938 98.582031 258.152344 96.628906 258.152344 94.574219 C 258.152344 92.503906 257.339844 90.542969 255.859375 89.050781 L 247.125 80.347656 C 247.125 80.34375 247.125 80.339844 247.121094 80.339844 C 246.898438 80.117188 246.703125 79.875 246.535156 79.621094 C 246.449219 79.496094 246.394531 79.355469 246.324219 79.222656 C 246.253906 79.089844 246.171875 78.964844 246.113281 78.824219 C 246.050781 78.664062 246.015625 78.503906 245.96875 78.339844 C 245.933594 78.21875 245.886719 78.101562 245.863281 77.976562 C 245.828125 77.789062 245.820312 77.59375 245.804688 77.40625 C 245.800781 77.300781 245.777344 77.203125 245.777344 77.097656 C 245.777344 76.917969 245.808594 76.738281 245.828125 76.554688 C 245.84375 76.449219 245.839844 76.335938 245.859375 76.222656 C 245.890625 76.066406 245.953125 75.914062 246 75.757812 C 246.039062 75.628906 246.0625 75.5 246.113281 75.375 C 246.175781 75.222656 246.265625 75.078125 246.347656 74.933594 C 246.410156 74.816406 246.457031 74.691406 246.53125 74.578125 C 246.617188 74.445312 246.734375 74.328125 246.832031 74.207031 C 246.929688 74.089844 247.007812 73.96875 247.117188 73.859375 C 247.117188 73.859375 247.117188 73.855469 247.121094 73.855469 C 247.121094 73.855469 247.121094 73.855469 247.121094 73.851562 L 267.871094 53.132812 C 268.167969 52.828125 268.464844 52.601562 268.871094 52.398438 L 231.101562 14.65625 C 221.425781 4.984375 205.734375 4.945312 196.058594 14.617188 L 158.421875 52.191406 L 158.417969 52.191406 L 173.574219 67.386719 L 179.085938 61.921875 "/><g clip-rule="nonzero" clip-path="url(#e5946eb753)"><path style=" stroke:none;fill-rule:nonzero;fill:#6A5952;fill-opacity:1;" d="M 336.632812 211.238281 C 326.800781 201.414062 310.839844 201.351562 300.941406 211.0625 L 264.398438 241.714844 C 265.207031 242.386719 265.972656 243.117188 266.703125 243.90625 C 267.429688 244.710938 268.097656 245.644531 268.714844 246.523438 L 268.671875 246.742188 C 275.375 256.972656 274.289062 270.894531 265.230469 279.945312 L 263.632812 281.542969 L 263.632812 281.386719 C 260.277344 284.484375 255.847656 285.8125 250.160156 285.8125 L 168.117188 285.8125 C 166.570312 285.8125 165.183594 285.308594 164.230469 284.246094 L 164.214844 284.277344 C 164.214844 284.28125 164.207031 284.308594 164.207031 284.3125 C 163.398438 283.402344 162.902344 282.15625 162.890625 280.84375 C 162.871094 277.945312 165.332031 275.527344 168.226562 275.527344 L 250.160156 275.527344 C 257.1875 275.527344 262.898438 269.136719 262.898438 261.199219 C 262.898438 257.339844 261.507812 253.707031 258.976562 250.914062 C 257.984375 249.835938 256.914062 249.007812 255.714844 248.375 C 255.695312 248.363281 255.683594 248.363281 255.664062 248.355469 C 255.527344 248.277344 255.390625 248.339844 255.25 248.265625 C 247.621094 244.332031 236.394531 246.140625 227.648438 246.140625 L 227.597656 246.140625 C 224.722656 246.140625 221.851562 246.128906 218.8125 246.191406 C 203.125 246.519531 186.910156 246.804688 172.265625 242.976562 C 169.007812 242.121094 165.835938 241.171875 162.765625 240.28125 C 147.234375 235.761719 132.558594 231.488281 113.796875 237.957031 C 97.308594 243.628906 81.675781 254.621094 64.589844 272.570312 C 64.496094 272.667969 64.40625 272.765625 64.320312 272.875 L 31.984375 312.65625 C 30.238281 314.804688 30.492188 317.945312 32.558594 319.785156 L 36.675781 323.449219 L 77.992188 360.226562 L 77.960938 360.214844 C 77.960938 360.214844 88.324219 369.503906 88.324219 369.5 L 90.628906 371.523438 L 92.582031 373.253906 C 94.628906 375.066406 97.730469 375.308594 99.667969 373.378906 L 134.125 339.441406 L 232.152344 339.441406 C 240.34375 339.441406 248.34375 335.726562 254.085938 329.933594 L 336.632812 247.273438 C 341.429688 242.480469 344.074219 236.015625 344.074219 229.253906 C 344.074219 222.492188 341.429688 216.039062 336.632812 211.238281 "/></g></g></svg>