<svg xmlns="http://www.w3.org/2000/svg" xmlns:xlink="http://www.w3.org/1999/xlink" width="500" zoomAndPan="magnify" viewBox="0 0 375 374.999991" height="500" preserveAspectRatio="xMidYMid meet" version="1.2"><defs><clipPath id="a42c54175a"><path d="M 1 18.539062 L 374 18.539062 L 374 365.789062 L 1 365.789062 Z M 1 18.539062 "/></clipPath></defs><g id="219f5bb2ab"><g clip-rule="nonzero" clip-path="url(#a42c54175a)"><path style=" stroke:none;fill-rule:nonzero;fill:#000000;fill-opacity:1;" d="M 373.15625 232.761719 L 304.382812 132.738281 C 302.929688 130.621094 300.042969 130.089844 297.929688 131.542969 L 261.09375 156.925781 C 260.078125 157.625 259.382812 158.703125 259.15625 159.910156 C 258.933594 161.125 259.203125 162.371094 259.898438 163.386719 L 266.183594 172.519531 C 252.070312 174.605469 239.574219 172.976562 228.964844 167.648438 C 221.539062 163.921875 213.667969 163.171875 204.191406 165.285156 C 186.261719 169.289062 171.25 173.511719 156.433594 178.738281 C 141.359375 179.578125 122.046875 177.515625 110.054688 169.632812 L 115.097656 162.289062 C 115.796875 161.273438 116.066406 160.019531 115.84375 158.808594 C 115.617188 157.601562 114.921875 156.523438 113.90625 155.828125 L 77.070312 130.445312 C 74.957031 128.988281 72.0625 129.523438 70.617188 131.636719 L 1.84375 231.675781 C 0.390625 233.789062 0.925781 236.679688 3.035156 238.136719 L 39.875 263.519531 C 40.65625 264.054688 41.578125 264.339844 42.503906 264.339844 C 42.785156 264.339844 43.070312 264.316406 43.347656 264.261719 C 44.554688 264.039062 45.632812 263.339844 46.328125 262.328125 L 50.105469 256.835938 C 54.605469 264.292969 60.671875 271.488281 68.464844 278.640625 L 65.828125 282.433594 C 59.90625 290.949219 62.011719 302.691406 70.515625 308.617188 C 73.300781 310.550781 76.488281 311.675781 79.792969 311.921875 L 79.5625 312.257812 C 73.640625 320.769531 75.746094 332.511719 84.25 338.4375 C 87.515625 340.714844 91.253906 341.800781 94.949219 341.800781 C 99.894531 341.800781 104.769531 339.847656 108.367188 336.183594 C 109.714844 339.242188 111.878906 341.984375 114.820312 344.039062 C 117.992188 346.246094 121.691406 347.398438 125.492188 347.398438 C 126.613281 347.398438 127.742188 347.300781 128.863281 347.097656 C 130.882812 346.734375 132.78125 346.050781 134.527344 345.097656 C 135.726562 348.949219 138.15625 352.449219 141.714844 354.929688 C 144.980469 357.199219 148.71875 358.289062 152.417969 358.289062 C 158.367188 358.289062 164.21875 355.480469 167.871094 350.234375 L 170.609375 346.292969 L 196.589844 362.667969 C 199.957031 364.789062 203.710938 365.804688 207.425781 365.804688 C 214.210938 365.804688 220.847656 362.425781 224.71875 356.269531 C 226.9375 352.746094 227.9375 348.792969 227.835938 344.90625 C 230.519531 346.175781 233.421875 346.828125 236.378906 346.828125 C 237.878906 346.828125 239.386719 346.664062 240.890625 346.324219 C 246.25 345.121094 250.808594 341.90625 253.726562 337.277344 C 256.03125 333.613281 257.082031 329.398438 256.804688 325.136719 C 258.625 325.664062 260.511719 325.9375 262.421875 325.9375 C 263.945312 325.9375 265.488281 325.765625 267.011719 325.417969 C 272.335938 324.207031 276.859375 321 279.753906 316.402344 C 282.53125 311.984375 283.492188 306.78125 282.5 301.652344 C 282.710938 301.660156 282.910156 301.675781 283.121094 301.675781 C 289.898438 301.675781 296.546875 298.296875 300.414062 292.140625 C 304.660156 285.386719 304.453125 277.082031 300.585938 270.675781 C 309.148438 268.027344 317.203125 263.101562 323.835938 256.417969 L 328.65625 263.425781 C 329.351562 264.441406 330.429688 265.136719 331.636719 265.363281 C 331.914062 265.417969 332.199219 265.441406 332.480469 265.441406 C 333.414062 265.441406 334.328125 265.160156 335.109375 264.621094 L 371.949219 239.234375 C 374.074219 237.773438 374.609375 234.875 373.15625 232.761719 Z M 41.3125 253.226562 L 12.121094 233.109375 L 75.621094 140.738281 L 104.816406 160.855469 Z M 89.054688 298.609375 C 87.617188 300.683594 85.441406 302.070312 82.925781 302.519531 C 80.417969 302.96875 77.898438 302.425781 75.824219 300.980469 C 73.75 299.539062 72.363281 297.359375 71.917969 294.84375 C 71.46875 292.328125 72.007812 289.808594 73.457031 287.734375 L 87.097656 268.113281 C 88.535156 266.035156 90.710938 264.648438 93.226562 264.199219 C 95.734375 263.75 98.253906 264.292969 100.328125 265.742188 C 104.628906 268.738281 105.691406 274.671875 102.703125 278.980469 Z M 89.566406 330.800781 C 85.261719 327.804688 84.203125 321.863281 87.191406 317.554688 L 110.316406 284.285156 C 110.316406 284.285156 110.316406 284.285156 110.316406 284.277344 L 119.796875 270.636719 C 121.636719 267.980469 124.601562 266.5625 127.609375 266.5625 C 129.484375 266.5625 131.378906 267.113281 133.027344 268.265625 C 135.101562 269.707031 136.484375 271.886719 136.933594 274.402344 C 137.382812 276.917969 136.84375 279.4375 135.394531 281.511719 L 102.789062 328.421875 C 99.792969 332.738281 93.867188 333.796875 89.566406 330.800781 Z M 127.238281 337.941406 C 124.734375 338.390625 122.210938 337.847656 120.136719 336.402344 C 115.835938 333.402344 114.773438 327.460938 117.761719 323.15625 L 135.667969 297.40625 C 138.660156 293.101562 144.59375 292.039062 148.898438 295.03125 C 153.199219 298.027344 154.257812 303.96875 151.273438 308.273438 L 147.605469 313.550781 C 147.605469 313.558594 147.597656 313.558594 147.597656 313.566406 L 133.375 334.03125 C 131.929688 336.097656 129.753906 337.492188 127.238281 337.941406 Z M 160.265625 344.914062 C 157.269531 349.21875 151.335938 350.289062 147.03125 347.292969 C 142.730469 344.292969 141.671875 338.351562 144.65625 334.046875 L 155.203125 318.871094 C 158.199219 314.566406 164.132812 313.496094 168.433594 316.492188 C 172.738281 319.492188 173.796875 325.433594 170.808594 329.738281 Z M 292.570312 287.183594 C 289.304688 292.371094 282.425781 293.9375 277.242188 290.667969 L 223.386719 256.71875 C 221.21875 255.347656 218.351562 256.003906 216.988281 258.175781 C 215.617188 260.34375 216.277344 263.21875 218.441406 264.582031 L 268.425781 296.082031 C 268.425781 296.082031 268.433594 296.089844 268.433594 296.089844 C 270.933594 297.664062 272.675781 300.132812 273.332031 303.046875 C 273.992188 305.960938 273.488281 308.933594 271.917969 311.4375 C 270.347656 313.9375 267.878906 315.671875 264.96875 316.339844 C 262.058594 316.996094 259.089844 316.492188 256.589844 314.921875 L 247.367188 309.113281 C 247.359375 309.113281 247.359375 309.105469 247.351562 309.105469 C 247.351562 309.105469 247.34375 309.105469 247.34375 309.097656 L 207.121094 283.742188 C 204.957031 282.371094 202.085938 283.03125 200.722656 285.199219 C 199.355469 287.367188 200.011719 290.242188 202.179688 291.605469 L 242.414062 316.964844 C 244.914062 318.539062 246.644531 321.007812 247.3125 323.921875 C 247.96875 326.835938 247.464844 329.808594 245.894531 332.3125 C 244.308594 334.835938 241.816406 336.585938 238.886719 337.246094 C 235.992188 337.894531 233.050781 337.382812 230.589844 335.820312 L 196.761719 314.199219 C 194.601562 312.820312 191.734375 313.457031 190.347656 315.617188 C 188.96875 317.78125 189.605469 320.652344 191.761719 322.039062 L 213.445312 335.898438 L 213.398438 335.976562 C 218.582031 339.242188 220.144531 346.121094 216.878906 351.320312 C 213.613281 356.507812 206.734375 358.074219 201.550781 354.804688 L 175.933594 338.65625 L 178.429688 335.0625 C 181.285156 330.949219 182.378906 325.960938 181.488281 321 C 180.597656 316.042969 177.851562 311.738281 173.742188 308.878906 C 170.191406 306.410156 166.074219 305.339844 162.050781 305.546875 C 163.027344 298.730469 160.21875 291.613281 154.199219 287.414062 C 151.328125 285.417969 148.023438 284.285156 144.601562 284.09375 C 148.425781 275.953125 145.949219 265.96875 138.328125 260.660156 C 129.824219 254.734375 118.09375 256.84375 112.175781 265.355469 L 111.933594 265.703125 C 110.558594 262.683594 108.414062 260.066406 105.628906 258.121094 C 101.519531 255.261719 96.539062 254.171875 91.585938 255.0625 C 86.632812 255.953125 82.332031 258.703125 79.476562 262.8125 L 73.820312 270.949219 C 65.84375 263.488281 59.96875 256.027344 55.96875 248.320312 L 104.785156 177.316406 C 114.574219 183.828125 127.207031 186.554688 137.894531 187.617188 C 135.046875 189.824219 132.671875 192.359375 130.636719 195.332031 L 113.878906 219.800781 C 112.832031 221.335938 112.46875 223.179688 112.855469 224.984375 C 113.242188 226.796875 114.332031 228.328125 115.917969 229.289062 C 137.105469 242.164062 158.273438 237.355469 178.847656 214.984375 C 179.050781 214.765625 179.183594 214.710938 179.476562 214.734375 L 200.769531 216.175781 L 289.085938 271.847656 C 294.269531 275.105469 295.832031 281.992188 292.570312 287.183594 Z M 292.570312 263.054688 L 204.722656 207.6875 C 204.074219 207.277344 203.332031 207.035156 202.566406 206.980469 L 180.101562 205.464844 C 177 205.253906 174.128906 206.402344 172.015625 208.695312 C 155.429688 226.726562 139.410156 231.328125 123.132812 222.714844 L 138.289062 200.582031 C 141.640625 195.6875 146.171875 192.441406 153.453125 189.722656 C 169.929688 183.574219 186.199219 178.839844 206.203125 174.371094 C 213.582031 172.730469 219.316406 173.21875 224.796875 175.96875 C 238.28125 182.738281 254.144531 184.402344 271.972656 180.957031 L 318.472656 248.59375 C 311.371094 256.285156 302.15625 261.445312 292.570312 263.054688 Z M 333.6875 254.316406 L 270.183594 161.945312 L 299.378906 141.832031 L 362.878906 234.199219 Z M 174.46875 140.675781 C 177.960938 142.683594 181.566406 144.757812 185.03125 146.933594 C 185.789062 147.40625 186.648438 147.648438 187.5 147.648438 C 188.351562 147.648438 189.21875 147.40625 189.96875 146.933594 C 193.433594 144.75 197.039062 142.683594 200.53125 140.675781 C 217.097656 131.148438 234.234375 121.304688 240.703125 97.382812 C 240.8125 96.988281 240.867188 96.578125 240.867188 96.167969 L 240.867188 39.121094 C 240.867188 37.105469 239.574219 35.324219 237.65625 34.695312 L 188.929688 18.847656 C 187.996094 18.546875 186.996094 18.546875 186.0625 18.847656 L 137.335938 34.695312 C 135.425781 35.316406 134.125 37.105469 134.125 39.121094 L 134.125 96.167969 C 134.125 96.578125 134.179688 96.988281 134.289062 97.382812 C 140.765625 121.296875 157.902344 131.148438 174.46875 140.675781 Z M 143.417969 42.496094 L 187.5 28.160156 L 231.582031 42.496094 L 231.582031 95.542969 C 226.003906 115.316406 212.042969 123.339844 195.910156 132.621094 C 193.148438 134.207031 190.316406 135.835938 187.507812 137.546875 C 184.691406 135.835938 181.859375 134.207031 179.105469 132.621094 C 162.972656 123.339844 149.011719 115.316406 143.433594 95.542969 L 143.433594 42.496094 Z M 155.203125 86.152344 C 153.394531 84.339844 153.394531 81.398438 155.203125 79.578125 C 157.015625 77.765625 159.953125 77.765625 161.773438 79.578125 L 178.007812 95.835938 L 213.226562 60.582031 C 215.039062 58.769531 217.976562 58.769531 219.796875 60.582031 C 221.605469 62.394531 221.605469 65.339844 219.796875 67.152344 L 181.292969 105.695312 C 180.421875 106.570312 179.242188 107.058594 178.015625 107.058594 C 176.785156 107.058594 175.597656 106.570312 174.734375 105.695312 Z M 155.203125 86.152344 "/></g></g></svg>